# xmcd
#
# Track frame offsets:
#	150
#	12822
#	20102
#	33322
#	45037
#	57070
#	71125
#	83370
#	92430
#	102540
#	115550
#	128162
#
# Disc length: 1870
#
# Revision: 2
# Processed by: cddbd v1.5.1PL0 Copyright (c) Steve Scherf et al.
# Submitted via: audiograbber 1.83.01
# Normalized: r1:DSETVAR1
#
DISCID=85074c0c
DTITLE=Various Artist - Doo Wop's Greatest Hits
DYEAR=1900
DGENRE=Rhythmic Soul
TTITLE0=The Silhouettes - Get A Job
TTITLE1=Maurice Williams and the Zodiacs - Stay
TTITLE2=The Penguins - Earth Angel (Will You Be Mine)
TTITLE3=The Impalas (with the Leroy Holmes Orchestra) - Sorry (I Ran All The Way Home)
TTITLE4=The Dell-Vikings - Come Go With Me
TTITLE5=The Five Satins - In The Still Of The Night
TTITLE6=The Harptones - Life Is But A Dream
TTITLE7=The Earls - Remember Then
TTITLE8=The Capris - There's A Moon Out Tonight
TTITLE9=The Dells - Oh, What A Night
TTITLE10=Robert and Johnny - We Belong Together
TTITLE11=The Spaniels - Goodnite Sweetheart, Goodnite
EXTD=
EXTT0=
EXTT1=
EXTT2=
EXTT3=
EXTT4=
EXTT5=
EXTT6=
EXTT7=
EXTT8=
EXTT9=
EXTT10=
EXTT11=
PLAYORDER=
